<svg width="15" height="14" viewBox="0 0 15 14" fill="none" xmlns="http://www.w3.org/2000/svg">
<path d="M13.712 2.86L13.7225 2.84725L10.7225 0.41725L9.7775 1.58275L11.3278 2.83825C10.9432 3.07194 10.6378 3.41594 10.4514 3.8255C10.2649 4.23506 10.206 4.69125 10.2823 5.13475C10.3948 5.809 10.859 6.39175 11.4598 6.718C12.131 7.08325 12.7197 7.0495 13.2432 6.8635L13.232 11.5C13.2329 11.6242 13.2028 11.7466 13.1445 11.8563C13.0862 11.9659 13.0014 12.0593 12.8979 12.1279C12.7944 12.1966 12.6755 12.2384 12.5518 12.2495C12.4281 12.2606 12.3036 12.2406 12.1895 12.1915C12.1002 12.1533 12.0191 12.098 11.951 12.0287C11.8817 11.9593 11.8267 11.8768 11.7893 11.7861C11.7518 11.6954 11.7326 11.5982 11.7327 11.5L11.75 10C11.7508 9.70479 11.693 9.41234 11.5801 9.13957C11.4672 8.86679 11.3014 8.61908 11.0922 8.41075C10.8833 8.20135 10.6351 8.03521 10.3619 7.92183C10.0887 7.80845 9.79581 7.75006 9.5 7.75H8.75V1.75C8.75 1.35218 8.59196 0.970644 8.31066 0.68934C8.02936 0.408035 7.64782 0.25 7.25 0.25H2C1.60218 0.25 1.22064 0.408035 0.93934 0.68934C0.658035 0.970644 0.5 1.35218 0.5 1.75V12.25C0.5 12.6478 0.658035 13.0294 0.93934 13.3107C1.22064 13.592 1.60218 13.75 2 13.75H7.25C7.64782 13.75 8.02936 13.592 8.31066 13.3107C8.59196 13.0294 8.75 12.6478 8.75 12.25V9.25H9.5C9.602 9.25 9.70025 9.27025 9.79325 9.3085C9.97174 9.38664 10.114 9.52946 10.1915 9.70825C10.2304 9.80058 10.2503 9.89981 10.25 10L10.232 11.5C10.232 11.8045 10.2913 12.0992 10.409 12.376C10.5223 12.6452 10.685 12.886 10.8897 13.0892C11.0979 13.2997 11.346 13.4665 11.6194 13.5799C11.8928 13.6934 12.186 13.7512 12.482 13.75C12.7865 13.75 13.0805 13.6915 13.358 13.573C13.6265 13.4605 13.868 13.2977 14.0712 13.0922C14.2812 12.8837 14.4477 12.6356 14.5611 12.3623C14.6746 12.089 14.7326 11.7959 14.732 11.5L14.75 4.75C14.7493 4.37322 14.6538 4.00266 14.4724 3.67241C14.291 3.34215 14.0296 3.06279 13.712 2.86ZM7.25 4H2V1.75H7.25V4ZM12.5 5.5C12.3011 5.5 12.1103 5.42098 11.9697 5.28033C11.829 5.13968 11.75 4.94891 11.75 4.75C11.75 4.55109 11.829 4.36032 11.9697 4.21967C12.1103 4.07902 12.3011 4 12.5 4C12.6989 4 12.8897 4.07902 13.0303 4.21967C13.171 4.36032 13.25 4.55109 13.25 4.75C13.25 4.94891 13.171 5.13968 13.0303 5.28033C12.8897 5.42098 12.6989 5.5 12.5 5.5Z" fill="#787878"/>
</svg>
